<svg width="71" height="71" viewBox="0 0 71 71" fill="none" xmlns="http://www.w3.org/2000/svg">
<path d="M35.5 24.7424C38.4706 24.7424 40.8788 22.3343 40.8788 19.3637C40.8788 16.393 38.4706 13.9849 35.5 13.9849C32.5294 13.9849 30.1212 16.393 30.1212 19.3637C30.1212 22.3343 32.5294 24.7424 35.5 24.7424Z" fill="#19376D"/>
<path d="M35.5 0C28.4788 0 21.6152 2.08204 15.7773 5.98283C9.93933 9.88362 5.3892 15.428 2.70229 21.9147C0.0153816 28.4015 -0.687637 35.5394 0.682138 42.4257C2.05191 49.312 5.43296 55.6375 10.3977 60.6023C15.3625 65.567 21.688 68.9481 28.5743 70.3179C35.4606 71.6876 42.5985 70.9846 49.0853 68.2977C55.572 65.6108 61.1164 61.0607 65.0172 55.2227C68.918 49.3848 71 42.5212 71 35.5C71 30.8381 70.0818 26.2218 68.2977 21.9147C66.5137 17.6077 63.8988 13.6942 60.6023 10.3977C57.3058 7.10123 53.3923 4.48632 49.0853 2.70228C44.7782 0.918235 40.1619 0 35.5 0ZM35.5 63.9C29.883 63.9 24.3922 62.2343 19.7218 59.1137C15.0515 55.9931 11.4114 51.5576 9.26184 46.3682C7.11231 41.1788 6.54989 35.4685 7.64571 29.9594C8.74153 24.4504 11.4464 19.39 15.4182 15.4182C19.39 11.4464 24.4504 8.74152 29.9594 7.6457C35.4685 6.54988 41.1788 7.11229 46.3682 9.26182C51.5576 11.4113 55.9931 15.0514 59.1137 19.7218C62.2344 24.3922 63.9 29.883 63.9 35.5C63.9 43.0321 60.9079 50.2558 55.5818 55.5818C50.2558 60.9078 43.0322 63.9 35.5 63.9Z" fill="#19376D"/>
<path d="M51.6364 30.1212L49.8434 24.7424L39.0859 28.3283H31.9141L21.1566 24.7424L19.3636 30.1212L30.1212 33.7071V39.0859L24.7424 54.3258L30.1212 57.0152L34.6035 44.4647H36.3965L40.8788 57.0152L46.2576 54.3258L40.8788 39.0859V33.7071L51.6364 30.1212Z" fill="#19376D"/>
</svg>
