<svg width="65" height="73" viewBox="0 0 65 73" fill="none" xmlns="http://www.w3.org/2000/svg">
<path d="M7.20584 72.0584H57.6467C61.6207 72.0584 64.8525 68.8265 64.8525 64.8525V10.8088C64.8525 6.83473 61.6207 3.60292 57.6467 3.60292H50.4408C50.4408 2.64736 50.0613 1.73095 49.3856 1.05527C48.7099 0.379592 47.7935 0 46.8379 0H18.0146C17.059 0 16.1426 0.379592 15.4669 1.05527C14.7913 1.73095 14.4117 2.64736 14.4117 3.60292H7.20584C3.23182 3.60292 0 6.83473 0 10.8088V64.8525C0 68.8265 3.23182 72.0584 7.20584 72.0584ZM7.20584 10.8088H14.4117V18.0146H50.4408V10.8088H57.6467V64.8525H7.20584V10.8088Z" fill="#19376D"/>
<path d="M28.8234 41.7434L22.3633 35.2834L17.2688 40.3779L28.8234 51.9325L47.5838 33.1721L42.4892 28.0775L28.8234 41.7434Z" fill="#19376D"/>
</svg>
